<svg xmlns="http://www.w3.org/2000/svg" width="1200" height="800" viewBox="0 0 1200 800" role="img" aria-label="Ilustrasi Udang Vaname">
<defs><linearGradient id="w" x1="0" y1="0" x2="0.35" y2="1"><stop offset="0%" stop-color="#146070"/><stop offset="100%" stop-color="#062f3a"/></linearGradient><linearGradient id="b" x1="0" y1="0" x2="0.2" y2="1"><stop offset="0%" stop-color="#e7d9c4"/><stop offset="100%" stop-color="#a9836a"/></linearGradient></defs>
<rect width="1200" height="800" fill="url(#w)"/><path d="M60 70 q 45 -14 90 0 q 45 14 90 0" fill="none" stroke="rgba(255,255,255,0.07)" stroke-width="6" stroke-linecap="round"/><path d="M197 116 q 67.75 -14 135.5 0 q 67.75 14 135.5 0" fill="none" stroke="rgba(255,255,255,0.07)" stroke-width="6" stroke-linecap="round"/><path d="M114 162 q 90.5 -14 181 0 q 90.5 14 181 0" fill="none" stroke="rgba(255,255,255,0.07)" stroke-width="6" stroke-linecap="round"/><path d="M251 208 q 48.25 -14 96.5 0 q 48.25 14 96.5 0" fill="none" stroke="rgba(255,255,255,0.07)" stroke-width="6" stroke-linecap="round"/><path d="M168 254 q 71 -14 142 0 q 71 14 142 0" fill="none" stroke="rgba(255,255,255,0.07)" stroke-width="6" stroke-linecap="round"/><path d="M85 300 q 93.75 -14 187.5 0 q 93.75 14 187.5 0" fill="none" stroke="rgba(255,255,255,0.07)" stroke-width="6" stroke-linecap="round"/><path d="M222 346 q 51.5 -14 103 0 q 51.5 14 103 0" fill="none" stroke="rgba(255,255,255,0.07)" stroke-width="6" stroke-linecap="round"/><path d="M139 392 q 74.25 -14 148.5 0 q 74.25 14 148.5 0" fill="none" stroke="rgba(255,255,255,0.07)" stroke-width="6" stroke-linecap="round"/><circle cx="80" cy="700" r="4" fill="rgba(255,255,255,0.20)"/><circle cx="153" cy="643" r="13" fill="rgba(255,255,255,0.20)"/><circle cx="226" cy="586" r="11" fill="rgba(255,255,255,0.20)"/><circle cx="299" cy="529" r="9" fill="rgba(255,255,255,0.20)"/><circle cx="112" cy="472" r="7" fill="rgba(255,255,255,0.20)"/><circle cx="185" cy="415" r="5" fill="rgba(255,255,255,0.20)"/><circle cx="258" cy="658" r="14" fill="rgba(255,255,255,0.20)"/><circle cx="331" cy="601" r="12" fill="rgba(255,255,255,0.20)"/><circle cx="144" cy="544" r="10" fill="rgba(255,255,255,0.20)"/><circle cx="217" cy="487" r="8" fill="rgba(255,255,255,0.20)"/><circle cx="290" cy="430" r="6" fill="rgba(255,255,255,0.20)"/><circle cx="103" cy="673" r="4" fill="rgba(255,255,255,0.20)"/><circle cx="176" cy="616" r="13" fill="rgba(255,255,255,0.20)"/><circle cx="249" cy="559" r="11" fill="rgba(255,255,255,0.20)"/><g opacity="0.28"><path d="M120 800 q 40 -230 -10 -330 q 90 120 96 330 Z" fill="#0d2a1c"/><path d="M1090 800 q -30 -260 26 -360 q -104 150 -96 360 Z" fill="#0d2a1c"/></g><g><path d="M800.8 478 l 150 -34 l -34 96 l 96 24 l -170 40 Z" fill="#a9836a"/><path d="M480.79999999999995 394 q 18 74 -22 116" fill="none" stroke="#a9836a" stroke-width="6" stroke-linecap="round" opacity="0.8"/><path d="M542.8 394 q 18 74 -22 116" fill="none" stroke="#a9836a" stroke-width="6" stroke-linecap="round" opacity="0.8"/><path d="M604.8 394 q 18 74 -22 116" fill="none" stroke="#a9836a" stroke-width="6" stroke-linecap="round" opacity="0.8"/><path d="M666.8 394 q 18 74 -22 116" fill="none" stroke="#a9836a" stroke-width="6" stroke-linecap="round" opacity="0.8"/><path d="M728.8 394 q 18 74 -22 116" fill="none" stroke="#a9836a" stroke-width="6" stroke-linecap="round" opacity="0.8"/><ellipse cx="455.2" cy="320" rx="58" ry="74" fill="#e7d9c4" transform="rotate(-24 455.2 320)"/><ellipse cx="455.2" cy="320" rx="58" ry="74" fill="none" stroke="#a9836a" stroke-width="5" transform="rotate(-24 455.2 320)"/><ellipse cx="521.76" cy="348.5432317141699" rx="53" ry="66" fill="#e7d9c4" transform="rotate(-15 521.76 348.5432317141699)"/><ellipse cx="521.76" cy="348.5432317141699" rx="53" ry="66" fill="none" stroke="#a9836a" stroke-width="5" transform="rotate(-15 521.76 348.5432317141699)"/><ellipse cx="588.3199999999999" cy="372.12501839796016" rx="48" ry="58" fill="#e7d9c4" transform="rotate(-6 588.3199999999999 372.12501839796016)"/><ellipse cx="588.3199999999999" cy="372.12501839796016" rx="48" ry="58" fill="none" stroke="#a9836a" stroke-width="5" transform="rotate(-6 588.3199999999999 372.12501839796016)"/><ellipse cx="654.88" cy="386.6463239113361" rx="43" ry="50" fill="#e7d9c4" transform="rotate(3 654.88 386.6463239113361)"/><ellipse cx="654.88" cy="386.6463239113361" rx="43" ry="50" fill="none" stroke="#a9836a" stroke-width="5" transform="rotate(3 654.88 386.6463239113361)"/><ellipse cx="721.44" cy="389.5830241538653" rx="38" ry="42" fill="#e7d9c4" transform="rotate(12 721.44 389.5830241538653)"/><ellipse cx="721.44" cy="389.5830241538653" rx="38" ry="42" fill="none" stroke="#a9836a" stroke-width="5" transform="rotate(12 721.44 389.5830241538653)"/><ellipse cx="788" cy="380.42465566542114" rx="33" ry="34" fill="#e7d9c4" transform="rotate(21 788 380.42465566542114)"/><ellipse cx="788" cy="380.42465566542114" rx="33" ry="34" fill="none" stroke="#a9836a" stroke-width="5" transform="rotate(21 788 380.42465566542114)"/><path d="M429.6 264 q -150 40 -186 168 q 96 92 196 62 q 34 -110 -10 -230 Z" fill="#e7d9c4" stroke="#a9836a" stroke-width="5"/><path d="M340 294 l -150 -66" fill="none" stroke="#a9836a" stroke-width="9" stroke-linecap="round"/><path d="M340 340 q -220 90 -300 250" fill="none" stroke="#a9836a" stroke-width="8" stroke-linecap="round"/><path d="M340 380 q -190 150 -206 300" fill="none" stroke="#a9836a" stroke-width="6" stroke-linecap="round" opacity="0.75"/><circle cx="378.4" cy="336" r="20" fill="#f4fbf6"/><circle cx="378.4" cy="336" r="10" fill="#0a0f0b"/></g>
</svg>
